<svg version="1.1" id="Layer_1" xmlns="http://www.w3.org/2000/svg" xmlns:xlink="http://www.w3.org/1999/xlink" x="0px" y="0px"
	 width="100%" viewBox="0 0 1080 1080" enable-background="new 0 0 1080 1080" xml:space="preserve">
<clipPath id="circle-clip">
	<circle cx="540" cy="540" r="540" />
</clipPath>
<g clip-path="url(#circle-clip)">
<path fill="#007E79" opacity="1.000000" stroke="none" 
	d="
M468.000000,1081.000000 
	C312.017944,1081.000000 156.535889,1081.000000 1.026916,1081.000000 
	C1.026916,721.059509 1.026916,361.118988 1.026916,1.089229 
	C360.898956,1.089229 720.797913,1.089229 1080.848389,1.089229 
	C1080.848389,360.999939 1080.848389,720.999939 1080.848389,1081.000000 
	C876.785156,1081.000000 672.642578,1081.000000 468.000000,1081.000000 
M486.438507,514.234192 
	C507.499969,527.673584 531.720398,532.715149 548.307556,531.200806 
	C546.935852,530.580139 545.902832,530.131836 544.885864,529.649536 
	C530.951416,523.041321 516.898071,516.666626 503.157349,509.677185 
	C498.812744,507.467255 494.911896,503.986664 491.507538,500.419861 
	C486.429352,495.099396 486.996490,490.273224 493.104706,486.266876 
	C497.083008,483.657501 501.535919,481.553741 506.047424,480.022705 
	C514.350281,477.205078 522.853027,474.976410 531.534729,472.425232 
	C511.871277,435.111542 492.232635,397.844849 472.290497,360.002258 
	C481.771759,360.002258 490.267365,360.238403 498.739441,359.894623 
	C502.516998,359.741333 504.316681,361.127533 505.912262,364.343506 
	C516.553528,385.791138 527.359070,407.157349 538.139893,428.535553 
	C541.045044,434.296417 544.049316,440.007233 547.256775,446.222839 
	C548.381348,444.069916 549.228027,442.506897 550.023193,440.918121 
	C562.911255,415.166687 575.764221,389.397552 588.748718,363.694885 
	C589.507202,362.193512 591.281982,360.217499 592.644104,360.169342 
	C601.588440,359.853088 610.549377,360.006348 620.307434,360.006348 
	C601.677734,395.352661 583.349609,430.126801 564.730530,465.453003 
	C566.673950,465.219604 567.981262,465.192566 569.223145,464.893555 
	C582.935181,461.592285 596.740112,458.615936 610.311951,454.810333 
	C623.109741,451.221802 635.742371,446.898834 646.397522,438.462433 
	C651.913513,434.095093 656.395935,428.870087 656.168274,421.360382 
	C655.952393,414.236237 655.833923,406.975800 654.387939,400.043213 
	C641.929565,340.313965 589.574890,303.625549 529.018982,311.892426 
	C476.529083,319.058167 435.387787,365.794312 435.382629,418.753693 
	C435.378784,457.959442 451.722321,488.996216 483.370544,512.056580 
	C484.369171,512.784180 485.070160,513.920288 485.138885,515.394714 
	C479.842926,515.394714 474.546967,515.394714 469.227325,515.394714 
	C469.227325,551.411621 469.227325,586.774292 469.227325,622.048096 
	C475.162445,622.048096 480.716125,622.048096 486.476898,622.048096 
	C486.476898,608.466614 486.450897,595.312317 486.488953,582.158142 
	C486.505493,576.439575 491.563843,571.148193 497.754425,570.219543 
	C503.868530,569.302429 509.585449,572.903442 511.047699,578.874207 
	C511.632599,581.262451 511.803467,583.799866 511.819122,586.271606 
	C511.894684,598.202942 511.853180,610.135071 511.853180,622.106323 
	C518.023621,622.106323 523.584839,622.106323 529.093933,622.106323 
	C529.093933,605.939819 529.578247,590.123596 528.926147,574.354309 
	C528.480469,563.577881 519.655640,555.481323 508.987000,553.864380 
	C500.552979,552.586182 493.368073,555.041626 486.476349,561.487915 
	C486.476349,549.335815 486.536926,538.230103 486.444916,527.125549 
	C486.410706,522.998779 486.019073,518.874939 486.438507,514.234192 
M691.593689,555.522156 
	C684.994080,554.272949 680.244080,556.827698 676.279785,562.135071 
	C673.110901,566.377441 669.146545,570.020630 665.601685,573.989197 
	C663.926453,575.864624 662.406555,577.878906 660.816284,579.830322 
	C660.342957,579.491028 659.869568,579.151794 659.396240,578.812500 
	C659.396240,557.898621 659.396240,536.984680 659.396240,515.799683 
	C653.378662,515.799683 647.806274,515.799683 642.214233,515.799683 
	C642.214233,551.415894 642.214233,586.770508 642.214233,622.062744 
	C648.138916,622.062744 653.691406,622.062744 659.833252,622.062744 
	C659.833252,613.165710 659.833252,604.676453 659.833252,595.040527 
	C667.468689,603.721741 674.221680,611.466248 681.072021,619.123718 
	C682.234009,620.422546 683.773560,622.229370 685.208252,622.295654 
	C692.299377,622.623291 699.413940,622.444763 707.582153,622.444763 
	C696.727234,610.255737 686.608276,598.893066 676.211243,587.218140 
	C685.858459,576.831116 695.368652,566.591736 705.649841,555.522217 
	C700.473206,555.522217 696.512207,555.522217 691.593689,555.522156 
M614.034119,575.874939 
	C613.297485,567.831299 609.619446,561.369934 602.313538,557.997131 
	C597.460388,555.756592 591.977417,554.318848 586.649963,553.785950 
	C576.107544,552.731445 566.040833,555.135803 556.193665,559.851501 
	C558.227905,565.003479 560.086182,569.709961 561.386047,573.002197 
	C570.273315,571.914551 578.233459,570.105896 586.167419,570.214478 
	C593.466187,570.314209 596.970398,575.847839 595.835693,582.850952 
	C587.810730,579.694824 579.657043,578.153381 571.015076,579.958008 
	C558.961853,582.475037 550.974365,591.699280 551.536316,602.880798 
	C552.133240,614.757507 560.482178,622.987732 573.079895,624.276672 
	C582.314880,625.221497 590.312500,622.330872 597.646240,616.066284 
	C597.807312,618.513916 597.922974,620.271301 598.042664,622.090942 
	C603.493347,622.090942 608.686768,622.090942 614.094116,622.090942 
	C614.094116,606.731995 614.094116,591.765015 614.034119,575.874939 
M799.380005,572.535217 
	C805.733154,571.689880 812.122314,569.971680 818.429749,570.232300 
	C825.458008,570.522644 828.665649,575.562378 828.000549,582.559753 
	C812.931824,577.937500 808.883972,578.824463 802.733704,580.042053 
	C791.713379,582.223755 784.165405,590.406006 783.546204,600.695801 
	C782.922607,611.057617 788.910278,619.894348 799.086975,623.023987 
	C808.709534,625.983093 817.808777,624.627625 826.117615,618.759888 
	C827.204529,617.992310 828.291809,617.225220 829.652710,616.264587 
	C829.846680,618.738342 829.984314,620.493652 830.114868,622.157959 
	C835.648132,622.157959 840.740601,622.157959 845.993896,622.157959 
	C845.993896,606.195190 846.295471,590.549255 845.856750,574.924133 
	C845.660583,567.935730 841.563660,562.604309 835.726135,558.575684 
	C824.140930,550.580505 799.406006,552.957520 788.393372,560.354187 
	C790.227844,565.000549 792.086670,569.708557 793.992004,574.534424 
	C795.919861,573.844421 797.308411,573.347473 799.380005,572.535217 
M244.161514,548.366150 
	C255.349747,574.058655 266.537964,599.751221 278.132629,626.377075 
	C293.262909,591.487854 307.863983,557.818909 322.740051,523.515991 
	C317.094635,523.515991 312.433533,523.739746 307.806763,523.437805 
	C304.697510,523.234802 303.429352,524.562012 302.395569,527.232056 
	C299.402100,534.963196 296.175262,542.604309 293.014496,550.270325 
	C288.350159,561.583008 283.663757,572.886658 278.712799,584.856506 
	C277.846436,582.899109 277.299805,581.725342 276.802460,580.531067 
	C269.471985,562.928955 262.176514,545.312134 254.773010,527.740845 
	C254.122528,526.197021 252.851105,523.824707 251.737366,523.748596 
	C245.874237,523.347534 239.969086,523.560730 233.464935,523.560730 
	C237.207962,532.166809 240.572220,539.901978 244.161514,548.366150 
M379.650024,589.983704 
	C381.606171,606.644043 394.099091,619.850220 409.890167,621.950256 
	C426.076172,624.102905 441.728790,614.651794 447.683319,598.739929 
	C449.125549,594.886047 449.987915,591.197937 456.180267,592.432434 
	C451.215637,585.611206 446.894470,579.674072 442.276520,573.329163 
	C437.567261,579.807617 433.244568,585.754272 428.606659,592.134460 
	C430.884857,592.424011 432.299805,592.603821 433.773468,592.791077 
	C430.889069,601.479492 423.089905,607.457153 414.871857,607.506348 
	C406.279907,607.557800 397.581604,601.000793 395.066864,592.576843 
	C392.514984,584.028564 396.273560,573.209351 403.545776,568.170227 
	C411.441223,562.699341 420.287842,563.888062 431.053741,572.005249 
	C434.689575,569.059814 438.374817,566.074341 442.219727,562.959534 
	C432.843689,552.621765 421.727783,548.388672 408.614014,550.600525 
	C390.665833,553.627747 379.392548,568.871765 379.650024,589.983704 
M765.296143,554.053345 
	C756.233765,552.322876 748.406982,554.515320 742.111755,562.648376 
	C741.892700,559.577637 741.764282,557.777954 741.624634,555.820190 
	C736.024780,555.820190 730.612061,555.820190 725.228027,555.820190 
	C725.228027,578.127625 725.228027,600.134827 725.228027,622.058594 
	C731.157471,622.058594 736.704102,622.058594 742.478027,622.058594 
	C742.478027,608.843323 742.618958,596.043335 742.397034,583.249695 
	C742.325073,579.097595 744.005798,576.356506 747.060364,573.950623 
	C752.624695,569.567932 758.766785,570.272339 765.231445,571.942932 
	C767.265686,566.713379 769.228699,561.666931 771.383423,556.127625 
	C769.422363,555.400024 767.766602,554.785645 765.296143,554.053345 
M358.146759,610.491577 
	C358.146759,592.269958 358.146759,574.048340 358.146759,555.938354 
	C351.932007,555.938354 346.382355,555.938354 340.527832,555.938354 
	C340.527832,567.296082 340.527832,578.245911 340.527832,589.195740 
	C340.527832,600.110046 340.527832,611.024353 340.527832,622.472168 
	C343.899292,622.472168 346.677704,622.472168 349.456085,622.472168 
	C352.221252,622.472168 354.986389,622.472168 358.146759,622.472168 
	C358.146759,618.406555 358.146759,614.948181 358.146759,610.491577 
M653.295898,655.982849 
	C651.479919,655.858459 649.606812,655.977173 647.858337,655.565857 
	C641.631592,654.100647 636.028503,655.069031 632.388611,660.586670 
	C628.971252,665.766968 630.017212,671.026978 634.355652,675.916504 
	C629.992798,679.012878 630.047424,682.632141 633.567017,686.466675 
	C628.502258,689.461914 626.913696,693.845703 628.228027,698.997864 
	C629.507385,704.012878 633.778137,705.909119 638.381104,706.573853 
	C641.622986,707.041992 645.063354,707.137573 648.278442,706.592896 
	C656.488770,705.201843 661.351074,699.698914 660.871338,693.001709 
	C660.419373,686.691956 655.520142,683.242371 646.544373,683.004456 
	C643.327942,682.919189 640.107300,682.990784 636.474854,682.990784 
	C637.371765,678.049500 640.389343,679.153870 642.780090,679.171631 
	C651.253540,679.234619 656.376282,675.096069 656.648499,667.587097 
	C656.729614,665.349548 656.029724,663.083618 655.627625,660.435303 
	C657.219971,660.435303 658.725281,660.435303 660.593201,660.435303 
	C660.401001,658.648376 660.254333,657.285278 660.114258,655.982788 
	C657.795593,655.982788 655.971252,655.982788 653.295898,655.982849 
M463.507782,689.493958 
	C464.188293,688.407227 465.437042,687.328857 465.453369,686.232239 
	C465.534851,680.751343 465.201538,675.265808 465.188049,669.781494 
	C465.171204,662.922729 467.922272,660.049377 474.264435,660.018494 
	C479.669281,659.992188 481.374390,662.140686 481.475922,669.491455 
	C481.566925,676.081299 481.495056,682.673340 481.495056,689.151550 
	C483.662109,689.151550 485.729004,689.151550 487.201721,689.151550 
	C487.201721,680.662415 487.485413,672.513611 487.110809,664.395142 
	C486.817871,658.047058 483.502869,655.045471 477.147369,655.088074 
	C473.303864,655.113770 469.466736,656.096680 465.420227,656.679199 
	C465.420227,650.246887 465.420227,643.711121 465.420227,637.073853 
	C463.173096,637.073853 461.071777,637.073853 459.110107,637.073853 
	C459.110107,654.572327 459.110107,671.832642 459.110107,689.500793 
	C460.454102,689.500793 461.580994,689.500793 463.507782,689.493958 
M705.295654,657.088074 
	C698.265564,653.582153 690.236389,654.116150 685.191040,658.687256 
	C679.296021,664.028137 678.739258,670.929565 680.610229,678.020569 
	C683.178162,687.753052 691.261597,691.681030 703.739258,690.192017 
	C708.214966,689.657959 709.998657,687.951233 708.404480,683.490112 
	C695.731445,687.960144 686.224976,683.892944 686.547913,674.015198 
	C690.700806,674.015198 694.861023,674.015198 699.021240,674.015198 
	C703.302246,674.015198 707.583252,674.015198 712.025146,674.015198 
	C712.339722,667.275330 710.989746,661.700684 705.295654,657.088074 
M388.388672,684.018982 
	C393.862915,690.643311 401.206329,690.811951 408.906677,690.155090 
	C413.266663,689.783203 414.898254,687.902771 413.530579,683.664673 
	C400.005432,687.597229 392.152466,684.311707 391.248840,673.883484 
	C399.847107,673.883484 408.410553,673.883484 417.071808,673.883484 
	C417.071808,672.588928 417.107727,671.768799 417.066345,670.952637 
	C416.529907,660.369873 410.659851,654.555542 400.819031,654.846008 
	C390.928711,655.137939 384.549225,661.720764 384.978973,672.044495 
	C385.138123,675.867554 386.923248,679.622925 388.388672,684.018982 
M498.110870,666.590576 
	C498.110870,674.175232 498.110870,681.759949 498.110870,689.168701 
	C500.559021,689.168701 502.477844,689.168701 504.172577,689.168701 
	C504.172577,681.863586 504.042358,674.894714 504.215118,667.933289 
	C504.346039,662.657593 507.855927,659.864441 513.611267,660.022034 
	C518.639709,660.159729 520.083984,661.865784 520.104858,667.822205 
	C520.129700,674.935059 520.110718,682.048035 520.110718,689.171143 
	C522.515564,689.171143 524.582458,689.171143 526.302917,689.171143 
	C526.302917,680.707336 526.583313,672.567261 526.211670,664.457153 
	C525.929382,658.299438 522.800476,655.328674 516.704224,655.149414 
	C513.485596,655.054871 510.232422,656.096375 506.997009,656.638062 
	C506.019501,656.801819 505.008087,657.281738 504.084381,657.141418 
	C502.073517,656.836121 500.109100,656.224854 498.110870,655.734985 
	C498.110870,659.657288 498.110870,662.642090 498.110870,666.590576 
M564.279175,683.681396 
	C569.775757,674.433411 568.607544,664.081726 561.438965,658.514954 
	C554.150452,652.854919 543.309204,653.871460 537.653992,660.745056 
	C531.763489,667.904602 532.589539,680.059509 539.379578,686.136536 
	C546.349792,692.374756 556.900391,691.574768 564.279175,683.681396 
M602.264160,655.309570 
	C592.481323,658.851257 587.870483,667.257568 590.174805,677.350220 
	C591.751282,684.255066 597.585510,689.506653 604.357544,690.116394 
	C612.888306,690.884644 618.948608,687.552979 622.134155,680.402527 
	C627.460632,668.446167 619.947205,652.673340 602.264160,655.309570 
M363.988495,654.535583 
	C363.988495,666.106323 363.988495,677.677063 363.988495,689.257812 
	C366.547028,689.257812 368.642090,689.257812 371.098633,689.257812 
	C371.098633,674.973083 371.098633,660.921814 371.098633,646.689819 
	C376.215118,646.689819 380.967682,646.689819 386.019836,646.689819 
	C385.934265,644.950378 385.857544,643.391296 385.779266,641.800354 
	C373.341370,641.800354 361.280457,641.800354 349.160278,641.800354 
	C349.160278,643.649536 349.160278,645.191895 349.160278,646.817871 
	C354.191528,646.817871 358.914124,646.817871 363.988495,646.817871 
	C363.988495,649.271545 363.988495,651.406982 363.988495,654.535583 
M422.444244,677.946960 
	C426.330414,687.973267 433.213409,691.596436 445.081177,690.377930 
	C449.890076,689.884155 452.193909,688.150513 450.700287,683.117493 
	C443.068817,687.052246 435.414429,686.104797 430.937714,680.671265 
	C427.135925,676.056946 426.995941,668.052979 430.637238,663.491272 
	C434.474396,658.684204 442.434509,658.293884 451.163605,662.740967 
	C451.557404,660.780273 451.923492,658.957581 452.495026,656.111938 
	C446.609161,655.697388 441.354431,654.828003 436.153290,655.076965 
	C428.174133,655.458862 419.725708,662.304138 422.444244,677.946960 
M339.652008,527.248413 
	C336.536865,533.130188 336.984253,538.507446 340.908081,542.345825 
	C344.520355,545.879456 350.268463,546.602051 354.742157,544.084717 
	C359.225677,541.561890 361.319061,536.576416 360.132172,531.248535 
	C358.123016,522.229492 347.717072,519.836548 339.652008,527.248413 
M575.977478,687.324768 
	C577.340820,691.793213 580.216003,688.701294 582.349487,689.033508 
	C582.349487,671.530151 582.349487,654.432800 582.349487,637.200806 
	C580.134094,637.200806 578.118958,637.200806 575.990417,637.200806 
	C575.990417,653.888794 575.990417,670.203735 575.977478,687.324768 
M724.987183,661.794678 
	C728.446411,657.572937 732.017395,660.034424 736.643188,662.174377 
	C735.709778,659.554382 735.603088,656.955017 734.312195,656.055969 
	C730.190857,653.185608 722.319580,655.105591 719.965637,659.056458 
	C717.089661,663.883301 718.846619,670.279114 723.925293,673.304443 
	C725.777893,674.408081 728.173279,675.004272 729.453735,676.550293 
	C730.721375,678.080688 731.886292,680.912170 731.274475,682.446411 
	C730.643860,684.027710 727.860474,685.507324 725.937378,685.618408 
	C723.705872,685.747314 721.385559,684.338440 718.993042,683.561157 
	C718.993042,685.129395 718.993042,686.909302 718.993042,689.198059 
	C721.468201,689.527466 723.889771,690.071411 726.323669,690.133057 
	C734.350098,690.336243 738.592529,685.575989 737.389954,677.969666 
	C736.671692,673.426697 733.290527,671.419678 729.650635,669.545959 
	C726.856262,668.107605 723.704895,666.794556 724.987183,661.794678 
M672.590454,688.046509 
	C672.590454,677.476074 672.590454,666.905701 672.590454,656.086548 
	C670.343079,656.086548 668.278931,656.086548 666.327942,656.086548 
	C666.327942,667.237793 666.327942,678.237244 666.327942,689.749512 
	C668.681213,689.407471 670.578735,689.131653 672.590454,688.046509 
M673.000183,645.438110 
	C672.660583,642.135315 670.941833,640.444763 667.689514,641.742065 
	C666.590576,642.180542 665.270630,644.075867 665.414368,645.117188 
	C665.600647,646.466553 667.196533,648.679565 668.102295,648.639526 
	C669.726929,648.567627 671.289490,647.092407 673.000183,645.438110 
z"/>
<path fill="#FEFEFE" opacity="1.000000" stroke="none" 
	d="
M485.909882,514.865967 
	C485.070160,513.920288 484.369171,512.784180 483.370544,512.056580 
	C451.722321,488.996216 435.378784,457.959442 435.382629,418.753693 
	C435.387787,365.794312 476.529083,319.058167 529.018982,311.892426 
	C589.574890,303.625549 641.929565,340.313965 654.387939,400.043213 
	C655.833923,406.975800 655.952393,414.236237 656.168274,421.360382 
	C656.395935,428.870087 651.913513,434.095093 646.397522,438.462433 
	C635.742371,446.898834 623.109741,451.221802 610.311951,454.810333 
	C596.740112,458.615936 582.935181,461.592285 569.223145,464.893555 
	C567.981262,465.192566 566.673950,465.219604 564.730530,465.453003 
	C583.349609,430.126801 601.677734,395.352661 620.307434,360.006348 
	C610.549377,360.006348 601.588440,359.853088 592.644104,360.169342 
	C591.281982,360.217499 589.507202,362.193512 588.748718,363.694885 
	C575.764221,389.397552 562.911255,415.166687 550.023193,440.918121 
	C549.228027,442.506897 548.381348,444.069916 547.256775,446.222839 
	C544.049316,440.007233 541.045044,434.296417 538.139893,428.535553 
	C527.359070,407.157349 516.553528,385.791138 505.912262,364.343506 
	C504.316681,361.127533 502.516998,359.741333 498.739441,359.894623 
	C490.267365,360.238403 481.771759,360.002258 472.290497,360.002258 
	C492.232635,397.844849 511.871277,435.111542 531.534729,472.425232 
	C522.853027,474.976410 514.350281,477.205078 506.047424,480.022705 
	C501.535919,481.553741 497.083008,483.657501 493.104706,486.266876 
	C486.996490,490.273224 486.429352,495.099396 491.507538,500.419861 
	C494.911896,503.986664 498.812744,507.467255 503.157349,509.677185 
	C516.898071,516.666626 530.951416,523.041321 544.885864,529.649536 
	C545.902832,530.131836 546.935852,530.580139 548.307556,531.200806 
	C531.720398,532.715149 507.499969,527.673584 486.141144,514.524292 
	C485.843781,514.814392 485.909882,514.865967 485.909882,514.865967 
z"/>
<path fill="#FEFEFE" opacity="1.000000" stroke="none" 
	d="
M485.817139,514.782104 
	C486.019073,518.874939 486.410706,522.998779 486.444916,527.125549 
	C486.536926,538.230103 486.476349,549.335815 486.476349,561.487915 
	C493.368073,555.041626 500.552979,552.586182 508.987000,553.864380 
	C519.655640,555.481323 528.480469,563.577881 528.926147,574.354309 
	C529.578247,590.123596 529.093933,605.939819 529.093933,622.106323 
	C523.584839,622.106323 518.023621,622.106323 511.853180,622.106323 
	C511.853180,610.135071 511.894684,598.202942 511.819122,586.271606 
	C511.803467,583.799866 511.632599,581.262451 511.047699,578.874207 
	C509.585449,572.903442 503.868530,569.302429 497.754425,570.219543 
	C491.563843,571.148193 486.505493,576.439575 486.488953,582.158142 
	C486.450897,595.312317 486.476898,608.466614 486.476898,622.048096 
	C480.716125,622.048096 475.162445,622.048096 469.227325,622.048096 
	C469.227325,586.774292 469.227325,551.411621 469.227325,515.394714 
	C474.546967,515.394714 479.842926,515.394714 485.524384,515.130371 
	C485.909882,514.865967 485.843781,514.814392 485.817139,514.782104 
z"/>
<path fill="#FDFEFE" opacity="1.000000" stroke="none" 
	d="
M692.072388,555.522217 
	C696.512207,555.522217 700.473206,555.522217 705.649841,555.522217 
	C695.368652,566.591736 685.858459,576.831116 676.211243,587.218140 
	C686.608276,598.893066 696.727234,610.255737 707.582153,622.444763 
	C699.413940,622.444763 692.299377,622.623291 685.208252,622.295654 
	C683.773560,622.229370 682.234009,620.422546 681.072021,619.123718 
	C674.221680,611.466248 667.468689,603.721741 659.833252,595.040527 
	C659.833252,604.676453 659.833252,613.165710 659.833252,622.062744 
	C653.691406,622.062744 648.138916,622.062744 642.214233,622.062744 
	C642.214233,586.770508 642.214233,551.415894 642.214233,515.799683 
	C647.806274,515.799683 653.378662,515.799683 659.396240,515.799683 
	C659.396240,536.984680 659.396240,557.898621 659.396240,578.812500 
	C659.869568,579.151794 660.342957,579.491028 660.816284,579.830322 
	C662.406555,577.878906 663.926453,575.864624 665.601685,573.989197 
	C669.146545,570.020630 673.110901,566.377441 676.279785,562.135071 
	C680.244080,556.827698 684.994080,554.272949 692.072388,555.522217 
z"/>
<path fill="#FCFDFD" opacity="1.000000" stroke="none" 
	d="
M614.064087,576.336487 
	C614.094116,591.765015 614.094116,606.731995 614.094116,622.090942 
	C608.686768,622.090942 603.493347,622.090942 598.042664,622.090942 
	C597.922974,620.271301 597.807312,618.513916 597.646240,616.066284 
	C590.312500,622.330872 582.314880,625.221497 573.079895,624.276672 
	C560.482178,622.987732 552.133240,614.757507 551.536316,602.880798 
	C550.974365,591.699280 558.961853,582.475037 571.015076,579.958008 
	C579.657043,578.153381 587.810730,579.694824 595.835693,582.850952 
	C596.970398,575.847839 593.466187,570.314209 586.167419,570.214478 
	C578.233459,570.105896 570.273315,571.914551 561.386047,573.002197 
	C560.086182,569.709961 558.227905,565.003479 556.193665,559.851501 
	C566.040833,555.135803 576.107544,552.731445 586.649963,553.785950 
	C591.977417,554.318848 597.460388,555.756592 602.313538,557.997131 
	C609.619446,561.369934 613.297485,567.831299 614.064087,576.336487 
M591.074646,606.760376 
	C592.477905,605.601868 594.050232,604.594116 595.247559,603.251892 
	C597.423950,600.812012 597.190369,596.039246 594.745422,595.079651 
	C588.301880,592.550659 581.650635,591.398010 574.891724,593.914734 
	C571.208557,595.286072 569.369263,598.100525 569.634460,602.029907 
	C569.913879,606.169678 572.792786,608.676941 576.407898,608.775269 
	C581.049805,608.901672 585.727600,607.711853 591.074646,606.760376 
z"/>
<path fill="#FCFDFD" opacity="1.000000" stroke="none" 
	d="
M799.038513,572.692871 
	C797.308411,573.347473 795.919861,573.844421 793.992004,574.534424 
	C792.086670,569.708557 790.227844,565.000549 788.393372,560.354187 
	C799.406006,552.957520 824.140930,550.580505 835.726135,558.575684 
	C841.563660,562.604309 845.660583,567.935730 845.856750,574.924133 
	C846.295471,590.549255 845.993896,606.195190 845.993896,622.157959 
	C840.740601,622.157959 835.648132,622.157959 830.114868,622.157959 
	C829.984314,620.493652 829.846680,618.738342 829.652710,616.264587 
	C828.291809,617.225220 827.204529,617.992310 826.117615,618.759888 
	C817.808777,624.627625 808.709534,625.983093 799.086975,623.023987 
	C788.910278,619.894348 782.922607,611.057617 783.546204,600.695801 
	C784.165405,590.406006 791.713379,582.223755 802.733704,580.042053 
	C808.883972,578.824463 812.931824,577.937500 828.000549,582.559753 
	C828.665649,575.562378 825.458008,570.522644 818.429749,570.232300 
	C812.122314,569.971680 805.733154,571.689880 799.038513,572.692871 
M802.086670,604.364624 
	C807.997986,611.761292 823.579529,610.596619 828.014282,602.426697 
	C829.802673,599.132019 828.413696,594.909546 824.792725,594.303284 
	C819.782410,593.464417 814.592957,592.761475 809.572388,593.160522 
	C803.640869,593.631897 801.358765,597.412415 802.086670,604.364624 
z"/>
<path fill="#FCFDFD" opacity="1.000000" stroke="none" 
	d="
M244.048981,548.001648 
	C240.572220,539.901978 237.207962,532.166809 233.464935,523.560730 
	C239.969086,523.560730 245.874237,523.347534 251.737366,523.748596 
	C252.851105,523.824707 254.122528,526.197021 254.773010,527.740845 
	C262.176514,545.312134 269.471985,562.928955 276.802460,580.531067 
	C277.299805,581.725342 277.846436,582.899109 278.712799,584.856506 
	C283.663757,572.886658 288.350159,561.583008 293.014496,550.270325 
	C296.175262,542.604309 299.402100,534.963196 302.395569,527.232056 
	C303.429352,524.562012 304.697510,523.234802 307.806763,523.437805 
	C312.433533,523.739746 317.094635,523.515991 322.740051,523.515991 
	C307.863983,557.818909 293.262909,591.487854 278.132629,626.377075 
	C266.537964,599.751221 255.349747,574.058655 244.048981,548.001648 
z"/>
<path fill="#FBFDFD" opacity="1.000000" stroke="none" 
	d="
M379.595703,589.556763 
	C379.392548,568.871765 390.665833,553.627747 408.614014,550.600525 
	C421.727783,548.388672 432.843689,552.621765 442.219727,562.959534 
	C438.374817,566.074341 434.689575,569.059814 431.053741,572.005249 
	C420.287842,563.888062 411.441223,562.699341 403.545776,568.170227 
	C396.273560,573.209351 392.514984,584.028564 395.066864,592.576843 
	C397.581604,601.000793 406.279907,607.557800 414.871857,607.506348 
	C423.089905,607.457153 430.889069,601.479492 433.773468,592.791077 
	C432.299805,592.603821 430.884857,592.424011 428.606659,592.134460 
	C433.244568,585.754272 437.567261,579.807617 442.276520,573.329163 
	C446.894470,579.674072 451.215637,585.611206 456.180267,592.432434 
	C449.987915,591.197937 449.125549,594.886047 447.683319,598.739929 
	C441.728790,614.651794 426.076172,624.102905 409.890167,621.950256 
	C394.099091,619.850220 381.606171,606.644043 379.595703,589.556763 
z"/>
<path fill="#FDFEFE" opacity="1.000000" stroke="none" 
	d="
M765.703491,554.112305 
	C767.766602,554.785645 769.422363,555.400024 771.383423,556.127625 
	C769.228699,561.666931 767.265686,566.713379 765.231445,571.942932 
	C758.766785,570.272339 752.624695,569.567932 747.060364,573.950623 
	C744.005798,576.356506 742.325073,579.097595 742.397034,583.249695 
	C742.618958,596.043335 742.478027,608.843323 742.478027,622.058594 
	C736.704102,622.058594 731.157471,622.058594 725.228027,622.058594 
	C725.228027,600.134827 725.228027,578.127625 725.228027,555.820190 
	C730.612061,555.820190 736.024780,555.820190 741.624634,555.820190 
	C741.764282,557.777954 741.892700,559.577637 742.111755,562.648376 
	C748.406982,554.515320 756.233765,552.322876 765.703491,554.112305 
z"/>
<path fill="#FEFEFE" opacity="1.000000" stroke="none" 
	d="
M358.146759,610.990723 
	C358.146759,614.948181 358.146759,618.406555 358.146759,622.472168 
	C354.986389,622.472168 352.221252,622.472168 349.456085,622.472168 
	C346.677704,622.472168 343.899292,622.472168 340.527832,622.472168 
	C340.527832,611.024353 340.527832,600.110046 340.527832,589.195740 
	C340.527832,578.245911 340.527832,567.296082 340.527832,555.938354 
	C346.382355,555.938354 351.932007,555.938354 358.146759,555.938354 
	C358.146759,574.048340 358.146759,592.269958 358.146759,610.990723 
z"/>
<path fill="#F7F9FA" opacity="1.000000" stroke="none" 
	d="
M653.721375,655.982788 
	C655.971252,655.982788 657.795593,655.982788 660.114258,655.982788 
	C660.254333,657.285278 660.401001,658.648376 660.593201,660.435303 
	C658.725281,660.435303 657.219971,660.435303 655.627625,660.435303 
	C656.029724,663.083618 656.729614,665.349548 656.648499,667.587097 
	C656.376282,675.096069 651.253540,679.234619 642.780090,679.171631 
	C640.389343,679.153870 637.371765,678.049500 636.474854,682.990784 
	C640.107300,682.990784 643.327942,682.919189 646.544373,683.004456 
	C655.520142,683.242371 660.419373,686.691956 660.871338,693.001709 
	C661.351074,699.698914 656.488770,705.201843 648.278442,706.592896 
	C645.063354,707.137573 641.622986,707.041992 638.381104,706.573853 
	C633.778137,705.909119 629.507385,704.012878 628.228027,698.997864 
	C626.913696,693.845703 628.502258,689.461914 633.567017,686.466675 
	C630.047424,682.632141 629.992798,679.012878 634.355652,675.916504 
	C630.017212,671.026978 628.971252,665.766968 632.388611,660.586670 
	C636.028503,655.069031 641.631592,654.100647 647.858337,655.565857 
	C649.606812,655.977173 651.479919,655.858459 653.721375,655.982788 
M653.792358,691.626892 
	C649.559143,687.591614 640.900513,686.662109 636.358337,689.862915 
	C633.078430,692.174194 632.794922,695.350159 634.608521,698.608276 
	C636.452454,701.921082 642.977295,703.009460 648.362732,701.250793 
	C652.731567,699.824036 655.129761,697.206604 653.792358,691.626892 
M647.409973,674.101990 
	C648.519104,672.565125 650.670410,670.919006 650.523071,669.513855 
	C650.203979,666.469666 649.519104,662.512939 647.447937,660.891907 
	C645.661682,659.493896 640.622925,659.678772 639.068542,661.223267 
	C637.218140,663.061890 636.550537,667.315735 637.162415,670.134216 
	C638.205078,674.937317 642.362244,675.480164 647.409973,674.101990 
z"/>
<path fill="#F8FAFA" opacity="1.000000" stroke="none" 
	d="
M463.107849,689.497375 
	C461.580994,689.500793 460.454102,689.500793 459.110107,689.500793 
	C459.110107,671.832642 459.110107,654.572327 459.110107,637.073853 
	C461.071777,637.073853 463.173096,637.073853 465.420227,637.073853 
	C465.420227,643.711121 465.420227,650.246887 465.420227,656.679199 
	C469.466736,656.096680 473.303864,655.113770 477.147369,655.088074 
	C483.502869,655.045471 486.817871,658.047058 487.110809,664.395142 
	C487.485413,672.513611 487.201721,680.662415 487.201721,689.151550 
	C485.729004,689.151550 483.662109,689.151550 481.495056,689.151550 
	C481.495056,682.673340 481.566925,676.081299 481.475922,669.491455 
	C481.374390,662.140686 479.669281,659.992188 474.264435,660.018494 
	C467.922272,660.049377 465.171204,662.922729 465.188049,669.781494 
	C465.201538,675.265808 465.534851,680.751343 465.453369,686.232239 
	C465.437042,687.328857 464.188293,688.407227 463.107849,689.497375 
z"/>
<path fill="#F8FAFA" opacity="1.000000" stroke="none" 
	d="
M705.592712,657.304749 
	C710.989746,661.700684 712.339722,667.275330 712.025146,674.015198 
	C707.583252,674.015198 703.302246,674.015198 699.021240,674.015198 
	C694.861023,674.015198 690.700806,674.015198 686.547913,674.015198 
	C686.224976,683.892944 695.731445,687.960144 708.404480,683.490112 
	C709.998657,687.951233 708.214966,689.657959 703.739258,690.192017 
	C691.261597,691.681030 683.178162,687.753052 680.610229,678.020569 
	C678.739258,670.929565 679.296021,664.028137 685.191040,658.687256 
	C690.236389,654.116150 698.265564,653.582153 705.592712,657.304749 
M694.777832,659.939941 
	C689.666565,660.588745 686.980713,663.565735 686.031982,668.464111 
	C692.826233,668.464111 699.192932,668.464111 705.640015,668.464111 
	C704.106018,662.026672 702.136780,660.407104 694.777832,659.939941 
z"/>
<path fill="#F8FAFA" opacity="1.000000" stroke="none" 
	d="
M388.177734,683.714111 
	C386.923248,679.622925 385.138123,675.867554 384.978973,672.044495 
	C384.549225,661.720764 390.928711,655.137939 400.819031,654.846008 
	C410.659851,654.555542 416.529907,660.369873 417.066345,670.952637 
	C417.107727,671.768799 417.071808,672.588928 417.071808,673.883484 
	C408.410553,673.883484 399.847107,673.883484 391.248840,673.883484 
	C392.152466,684.311707 400.005432,687.597229 413.528931,683.663452 
	C414.898254,687.902771 413.266663,689.783203 408.906677,690.155090 
	C401.206329,690.811951 393.862915,690.643311 388.177734,683.714111 
M406.121765,668.883057 
	C407.562866,668.802490 409.003998,668.721924 410.475555,668.639587 
	C409.493469,662.472839 406.507141,659.819092 400.916901,659.865845 
	C395.465057,659.911438 392.367584,662.702942 391.315308,668.883118 
	C395.988708,668.883118 400.596985,668.883118 406.121765,668.883057 
z"/>
<path fill="#F7F9FA" opacity="1.000000" stroke="none" 
	d="
M498.110870,666.108704 
	C498.110870,662.642090 498.110870,659.657288 498.110870,655.734985 
	C500.109100,656.224854 502.073517,656.836121 504.084381,657.141418 
	C505.008087,657.281738 506.019501,656.801819 506.997009,656.638062 
	C510.232422,656.096375 513.485596,655.054871 516.704224,655.149414 
	C522.800476,655.328674 525.929382,658.299438 526.211670,664.457153 
	C526.583313,672.567261 526.302917,680.707336 526.302917,689.171143 
	C524.582458,689.171143 522.515564,689.171143 520.110718,689.171143 
	C520.110718,682.048035 520.129700,674.935059 520.104858,667.822205 
	C520.083984,661.865784 518.639709,660.159729 513.611267,660.022034 
	C507.855927,659.864441 504.346039,662.657593 504.215118,667.933289 
	C504.042358,674.894714 504.172577,681.863586 504.172577,689.168701 
	C502.477844,689.168701 500.559021,689.168701 498.110870,689.168701 
	C498.110870,681.759949 498.110870,674.175232 498.110870,666.108704 
z"/>
<path fill="#F5F8F8" opacity="1.000000" stroke="none" 
	d="
M564.065857,683.981140 
	C556.900391,691.574768 546.349792,692.374756 539.379578,686.136536 
	C532.589539,680.059509 531.763489,667.904602 537.653992,660.745056 
	C543.309204,653.871460 554.150452,652.854919 561.438965,658.514954 
	C568.607544,664.081726 569.775757,674.433411 564.065857,683.981140 
M560.808960,677.712219 
	C560.849243,674.736938 561.330322,671.687012 560.841797,668.801270 
	C559.676025,661.915466 552.703064,658.019775 546.519714,660.450012 
	C541.889465,662.269836 539.241638,668.213440 540.081482,674.901794 
	C540.808167,680.688904 544.151367,684.485535 549.223999,685.283936 
	C554.530945,686.119202 557.619263,684.270752 560.808960,677.712219 
z"/>
<path fill="#F5F8F8" opacity="1.000000" stroke="none" 
	d="
M602.674683,655.209351 
	C619.947205,652.673340 627.460632,668.446167 622.134155,680.402527 
	C618.948608,687.552979 612.888306,690.884644 604.357544,690.116394 
	C597.585510,689.506653 591.751282,684.255066 590.174805,677.350220 
	C587.870483,667.257568 592.481323,658.851257 602.674683,655.209351 
M596.092285,669.974487 
	C595.883118,678.728088 598.330139,683.486877 603.818481,684.999756 
	C609.803589,686.649536 615.006653,683.814148 616.723572,677.967102 
	C618.990417,670.247498 615.768066,662.150757 609.683533,660.277283 
	C603.276001,658.304443 598.656555,661.349854 596.092285,669.974487 
z"/>
<path fill="#F9FBFB" opacity="1.000000" stroke="none" 
	d="
M363.988495,654.039062 
	C363.988495,651.406982 363.988495,649.271545 363.988495,646.817871 
	C358.914124,646.817871 354.191528,646.817871 349.160278,646.817871 
	C349.160278,645.191895 349.160278,643.649536 349.160278,641.800354 
	C361.280457,641.800354 373.341370,641.800354 385.779266,641.800354 
	C385.857544,643.391296 385.934265,644.950378 386.019836,646.689819 
	C380.967682,646.689819 376.215118,646.689819 371.098633,646.689819 
	C371.098633,660.921814 371.098633,674.973083 371.098633,689.257812 
	C368.642090,689.257812 366.547028,689.257812 363.988495,689.257812 
	C363.988495,677.677063 363.988495,666.106323 363.988495,654.039062 
z"/>
<path fill="#F5F8F8" opacity="1.000000" stroke="none" 
	d="
M422.321533,677.576050 
	C419.725708,662.304138 428.174133,655.458862 436.153290,655.076965 
	C441.354431,654.828003 446.609161,655.697388 452.495026,656.111938 
	C451.923492,658.957581 451.557404,660.780273 451.163605,662.740967 
	C442.434509,658.293884 434.474396,658.684204 430.637238,663.491272 
	C426.995941,668.052979 427.135925,676.056946 430.937714,680.671265 
	C435.414429,686.104797 443.068817,687.052246 450.699707,683.117065 
	C452.193909,688.150513 449.890076,689.884155 445.081177,690.377930 
	C433.213409,691.596436 426.330414,687.973267 422.321533,677.576050 
z"/>
<path fill="#F9FBFB" opacity="1.000000" stroke="none" 
	d="
M339.864258,526.942444 
	C347.717072,519.836548 358.123016,522.229492 360.132172,531.248535 
	C361.319061,536.576416 359.225677,541.561890 354.742157,544.084717 
	C350.268463,546.602051 344.520355,545.879456 340.908081,542.345825 
	C336.984253,538.507446 336.536865,533.130188 339.864258,526.942444 
z"/>
<path fill="#F5F8F8" opacity="1.000000" stroke="none" 
	d="
M575.983948,686.921753 
	C575.990417,670.203735 575.990417,653.888794 575.990417,637.200806 
	C578.118958,637.200806 580.134094,637.200806 582.349487,637.200806 
	C582.349487,654.432800 582.349487,671.530151 582.349487,689.033508 
	C580.216003,688.701294 577.340820,691.793213 575.983948,686.921753 
z"/>
<path fill="#F5F8F8" opacity="1.000000" stroke="none" 
	d="
M724.831116,662.198364 
	C723.704895,666.794556 726.856262,668.107605 729.650635,669.545959 
	C733.290527,671.419678 736.671692,673.426697 737.389954,677.969666 
	C738.592529,685.575989 734.350098,690.336243 726.323669,690.133057 
	C723.889771,690.071411 721.468201,689.527466 718.993042,689.198059 
	C718.993042,686.909302 718.993042,685.129395 718.993042,683.561157 
	C721.385559,684.338440 723.705872,685.747314 725.937378,685.618408 
	C727.860474,685.507324 730.643860,684.027710 731.274475,682.446411 
	C731.886292,680.912170 730.721375,678.080688 729.453735,676.550293 
	C728.173279,675.004272 725.777893,674.408081 723.925293,673.304443 
	C718.846619,670.279114 717.089661,663.883301 719.965637,659.056458 
	C722.319580,655.105591 730.190857,653.185608 734.312195,656.055969 
	C735.603088,656.955017 735.709778,659.554382 736.643188,662.174377 
	C732.017395,660.034424 728.446411,657.572937 724.831116,662.198364 
z"/>
<path fill="#F8FAFA" opacity="1.000000" stroke="none" 
	d="
M672.533325,688.451172 
	C670.578735,689.131653 668.681213,689.407471 666.327942,689.749512 
	C666.327942,678.237244 666.327942,667.237793 666.327942,656.086548 
	C668.278931,656.086548 670.343079,656.086548 672.590454,656.086548 
	C672.590454,666.905701 672.590454,677.476074 672.533325,688.451172 
z"/>
<path fill="#F5F8F8" opacity="1.000000" stroke="none" 
	d="
M672.939087,645.820923 
	C671.289490,647.092407 669.726929,648.567627 668.102295,648.639526 
	C667.196533,648.679565 665.600647,646.466553 665.414368,645.117188 
	C665.270630,644.075867 666.590576,642.180542 667.689514,641.742065 
	C670.941833,640.444763 672.660583,642.135315 672.939087,645.820923 
z"/>
<path fill="#06807B" opacity="1.000000" stroke="none" 
	d="
M590.732300,606.924805 
	C585.727600,607.711853 581.049805,608.901672 576.407898,608.775269 
	C572.792786,608.676941 569.913879,606.169678 569.634460,602.029907 
	C569.369263,598.100525 571.208557,595.286072 574.891724,593.914734 
	C581.650635,591.398010 588.301880,592.550659 594.745422,595.079651 
	C597.190369,596.039246 597.423950,600.812012 595.247559,603.251892 
	C594.050232,604.594116 592.477905,605.601868 590.732300,606.924805 
z"/>
<path fill="#06807B" opacity="1.000000" stroke="none" 
	d="
M802.010376,604.001221 
	C801.358765,597.412415 803.640869,593.631897 809.572388,593.160522 
	C814.592957,592.761475 819.782410,593.464417 824.792725,594.303284 
	C828.413696,594.909546 829.802673,599.132019 828.014282,602.426697 
	C823.579529,610.596619 807.997986,611.761292 802.010376,604.001221 
z"/>
<path fill="#06807B" opacity="1.000000" stroke="none" 
	d="
M653.898315,691.979309 
	C655.129761,697.206604 652.731567,699.824036 648.362732,701.250793 
	C642.977295,703.009460 636.452454,701.921082 634.608521,698.608276 
	C632.794922,695.350159 633.078430,692.174194 636.358337,689.862915 
	C640.900513,686.662109 649.559143,687.591614 653.898315,691.979309 
z"/>
<path fill="#12847F" opacity="1.000000" stroke="none" 
	d="
M647.048340,674.256104 
	C642.362244,675.480164 638.205078,674.937317 637.162415,670.134216 
	C636.550537,667.315735 637.218140,663.061890 639.068542,661.223267 
	C640.622925,659.678772 645.661682,659.493896 647.447937,660.891907 
	C649.519104,662.512939 650.203979,666.469666 650.523071,669.513855 
	C650.670410,670.919006 648.519104,672.565125 647.048340,674.256104 
z"/>
<path fill="#12847F" opacity="1.000000" stroke="none" 
	d="
M695.186279,659.902710 
	C702.136780,660.407104 704.106018,662.026672 705.640015,668.464111 
	C699.192932,668.464111 692.826233,668.464111 686.031982,668.464111 
	C686.980713,663.565735 689.666565,660.588745 695.186279,659.902710 
z"/>
<path fill="#12847F" opacity="1.000000" stroke="none" 
	d="
M405.663513,668.883057 
	C400.596985,668.883118 395.988708,668.883118 391.315308,668.883118 
	C392.367584,662.702942 395.465057,659.911438 400.916901,659.865845 
	C406.507141,659.819092 409.493469,662.472839 410.475555,668.639587 
	C409.003998,668.721924 407.562866,668.802490 405.663513,668.883057 
z"/>
<path fill="#06807B" opacity="1.000000" stroke="none" 
	d="
M560.678955,678.108887 
	C557.619263,684.270752 554.530945,686.119202 549.223999,685.283936 
	C544.151367,684.485535 540.808167,680.688904 540.081482,674.901794 
	C539.241638,668.213440 541.889465,662.269836 546.519714,660.450012 
	C552.703064,658.019775 559.676025,661.915466 560.841797,668.801270 
	C561.330322,671.687012 560.849243,674.736938 560.678955,678.108887 
z"/>
<path fill="#06807B" opacity="1.000000" stroke="none" 
	d="
M596.157104,669.563232 
	C598.656555,661.349854 603.276001,658.304443 609.683533,660.277283 
	C615.768066,662.150757 618.990417,670.247498 616.723572,677.967102 
	C615.006653,683.814148 609.803589,686.649536 603.818481,684.999756 
	C598.330139,683.486877 595.883118,678.728088 596.157104,669.563232 
z"/>
</g>
</svg>